<?xml version="1.0" encoding="UTF-8"?>
<svg xmlns="http://www.w3.org/2000/svg" xmlns:xlink="http://www.w3.org/1999/xlink" viewBox="0 0 512 512" width="512px" height="512px">
<g id="surface24769873">
<path style=" stroke:none;fill-rule:nonzero;fill:rgb(80.000001%,80.000001%,80.000001%);fill-opacity:1;" d="M 87.039062 512 C 38.96875 512 0 473.03125 0 424.960938 L 0 87.039062 C 0 38.96875 38.96875 0 87.039062 0 L 424.960938 0 C 473.03125 0 512 38.96875 512 87.039062 L 512 424.960938 C 512 473.03125 473.03125 512 424.960938 512 Z M 87.039062 512 "/>
<path style=" stroke:none;fill-rule:nonzero;fill:rgb(36.078432%,1.960784%,53.333336%);fill-opacity:1;" d="M 182.273438 75.777344 C 123.554688 75.777344 75.777344 123.554688 75.777344 182.273438 L 75.777344 329.726562 C 75.777344 388.445312 123.554688 436.222656 182.273438 436.222656 L 329.726562 436.222656 C 388.445312 436.222656 436.222656 388.445312 436.222656 329.726562 L 436.222656 182.273438 C 436.222656 123.554688 388.445312 75.777344 329.726562 75.777344 Z M 182.273438 92.160156 L 329.726562 92.160156 C 379.589844 92.160156 419.839844 132.410156 419.839844 182.273438 L 419.839844 329.726562 C 419.839844 379.589844 379.589844 419.839844 329.726562 419.839844 L 182.273438 419.839844 C 132.410156 419.839844 92.160156 379.589844 92.160156 329.726562 L 92.160156 182.273438 C 92.160156 132.410156 132.410156 92.160156 182.273438 92.160156 Z M 354.304688 141.3125 C 345.253906 141.3125 337.921875 148.648438 337.921875 157.695312 C 337.921875 166.746094 345.253906 174.078125 354.304688 174.078125 C 363.351562 174.078125 370.6875 166.746094 370.6875 157.695312 C 370.6875 148.648438 363.351562 141.3125 354.304688 141.3125 Z M 256 165.886719 C 206.328125 165.886719 165.886719 206.328125 165.886719 256 C 165.886719 305.671875 206.328125 346.113281 256 346.113281 C 305.671875 346.113281 346.113281 305.671875 346.113281 256 C 346.113281 206.328125 305.671875 165.886719 256 165.886719 Z M 256 182.273438 C 296.816406 182.273438 329.726562 215.183594 329.726562 256 C 329.726562 296.816406 296.816406 329.726562 256 329.726562 C 215.183594 329.726562 182.273438 296.816406 182.273438 256 C 182.273438 215.183594 215.183594 182.273438 256 182.273438 Z M 256 182.273438 "/>
</g>
</svg>
