<?xml version="1.0" encoding="UTF-8"?>
<svg xmlns="http://www.w3.org/2000/svg" xmlns:xlink="http://www.w3.org/1999/xlink" viewBox="0 0 512 512" width="512px" height="512px">
<g id="surface24825028">
<path style=" stroke:none;fill-rule:nonzero;fill:rgb(80.000001%,80.000001%,80.000001%);fill-opacity:1;" d="M 87.039062 512 C 38.96875 512 0 473.03125 0 424.960938 L 0 87.039062 C 0 38.96875 38.96875 0 87.039062 0 L 424.960938 0 C 473.03125 0 512 38.96875 512 87.039062 L 512 424.960938 C 512 473.03125 473.03125 512 424.960938 512 Z M 87.039062 512 "/>
<path style=" stroke:none;fill-rule:nonzero;fill:rgb(60.784316%,34.901962%,71.372551%);fill-opacity:1;" d="M 165.886719 83.96875 C 120.738281 83.96875 83.96875 120.738281 83.96875 165.886719 L 83.96875 346.113281 C 83.96875 391.261719 120.738281 428.03125 165.886719 428.03125 L 346.113281 428.03125 C 391.261719 428.03125 428.03125 391.261719 428.03125 346.113281 L 428.03125 165.886719 C 428.03125 120.738281 391.261719 83.96875 346.113281 83.96875 Z M 165.886719 100.351562 L 346.113281 100.351562 C 382.40625 100.351562 411.648438 129.59375 411.648438 165.886719 L 411.648438 346.113281 C 411.648438 382.40625 382.40625 411.648438 346.113281 411.648438 L 165.886719 411.648438 C 129.59375 411.648438 100.351562 382.40625 100.351562 346.113281 L 100.351562 165.886719 C 100.351562 129.59375 129.59375 100.351562 165.886719 100.351562 Z M 157.695312 174.078125 C 144.21875 174.078125 133.121094 185.179688 133.121094 198.65625 L 133.121094 313.34375 C 133.121094 326.820312 144.21875 337.921875 157.695312 337.921875 L 354.304688 337.921875 C 367.78125 337.921875 378.878906 326.820312 378.878906 313.34375 L 378.878906 198.65625 C 378.878906 185.179688 367.78125 174.078125 354.304688 174.078125 Z M 161.089844 190.464844 L 350.894531 190.464844 L 277.9375 263.3125 C 265.707031 275.519531 246.144531 275.519531 233.921875 263.296875 Z M 362.496094 202.03125 L 362.496094 309.96875 L 308.449219 256 Z M 149.503906 202.046875 L 203.457031 256 L 149.503906 309.953125 Z M 296.863281 267.566406 L 350.910156 321.535156 L 161.089844 321.535156 L 215.039062 267.585938 L 222.335938 274.878906 C 240.816406 293.359375 271.011719 293.375 289.503906 274.910156 Z M 296.863281 267.566406 "/>
</g>
</svg>
